<svg width="24" height="24" viewBox="0 0 24 24" fill="none" xmlns="http://www.w3.org/2000/svg">
  <path d="M13.41 10.41l-2.82-2.82c-.39-.39-1.02-.39-1.41 0l-2.83 2.83c-.39.39-.39 1.02 0 1.41l2.83 2.83c.39.39 1.02.39 1.41 0l2.82-2.82c.39-.39.39-1.03 0-1.43zm-2.82 0l1.41 1.41-1.41 1.41-1.41-1.41 1.41-1.41zm-6.36-6.36l-2.83 2.83c-.39.39-.39 1.02 0 1.41l2.83 2.83c.39.39 1.02.39 1.41 0l2.83-2.83c.39-.39.39-1.02 0-1.41l-2.83-2.83c-.39-.39-1.03-.39-1.41 0zm1.41 2.83l1.41 1.41-1.41 1.41-1.41-1.41 1.41-1.41zm11.31 11.31l-2.83-2.83c-.39-.39-1.02-.39-1.41 0l-2.83 2.83c-.39.39-.39 1.02 0 1.41l2.83 2.83c.39.39 1.02.39 1.41 0l2.83-2.83c.39-.39.39-1.02 0-1.41zm-2.82 2.83l-1.41-1.41 1.41-1.41 1.41 1.41-1.41 1.41z" fill="#1E88E5"/>
</svg>