<svg width="24" height="24" viewBox="0 0 24 24" fill="none" xmlns="http://www.w3.org/2000/svg">
  <path d="M7.5 2C5.57 2 4 3.57 4 5.5S5.57 9 7.5 9 11 7.43 11 5.5 9.43 2 7.5 2zm0 2C8.33 4 9 4.67 9 5.5S8.33 7 7.5 7 6 6.33 6 5.5 6.67 4 7.5 4zm9 0c-1.93 0-3.5 1.57-3.5 3.5S14.57 9 16.5 9 20 7.43 20 5.5 18.43 2 16.5 2zm0 2c.83 0 1.5.67 1.5 1.5S17.33 7 16.5 7 15 6.33 15 5.5 15.67 4 16.5 4zM12 4c-1.1 0-2 .9-2 2s.9 2 2 2 2-.9 2-2-.9-2-2-2zm0 3c-.55 0-1-.45-1-1s.45-1 1-1 1 .45 1 1-.45 1-1 1zm-2 4c-1.1 0-2 .9-2 2s.9 2 2 2 2-.9 2-2-.9-2-2-2zm4 0c-1.1 0-2 .9-2 2s.9 2 2 2 2-.9 2-2-.9-2-2-2zm-2 5c-1.1 0-2 .9-2 2s.9 2 2 2 2-.9 2-2-.9-2-2-2z" fill="#43A047"/>
</svg>